<svg width="30" height="30" viewBox="0 0 30 30" fill="none" xmlns="http://www.w3.org/2000/svg">
<path d="M15.3536 7.64645C15.1583 7.45118 14.8417 7.45118 14.6464 7.64645L11.4645 10.8284C11.2692 11.0237 11.2692 11.3403 11.4645 11.5355C11.6597 11.7308 11.9763 11.7308 12.1716 11.5355L15 8.70711L17.8284 11.5355C18.0237 11.7308 18.3403 11.7308 18.5355 11.5355C18.7308 11.3403 18.7308 11.0237 18.5355 10.8284L15.3536 7.64645ZM15.5 23L15.5 8H14.5L14.5 23H15.5Z" fill="#606060"/>
<path d="M3 0.5H27C28.3807 0.5 29.5 1.61929 29.5 3V27C29.5 28.3807 28.3807 29.5 27 29.5H3C1.61929 29.5 0.5 28.3807 0.5 27V3C0.5 1.61929 1.61929 0.5 3 0.5Z" stroke="#606060"/>
<path d="M2.5 25V5C2.5 3.61929 3.61929 2.5 5 2.5H25C26.3807 2.5 27.5 3.61929 27.5 5V25C27.5 26.3807 26.3807 27.5 25 27.5H5C3.61929 27.5 2.5 26.3807 2.5 25Z" stroke="#606060"/>
<path d="M26.6464 3.79103L28.9375 1.5" stroke="#606060"/>
<path d="M26.5 26.5L28.791 28.791" stroke="#606060"/>
<path d="M1 29.1211L3.12132 26.9998" stroke="#606060"/>
<path d="M1 1L3.12132 3.12132" stroke="#606060"/>
</svg>
