<svg width="101" height="40" viewBox="0 0 101 40" fill="none" xmlns="http://www.w3.org/2000/svg">
<rect x="0.5" y="0.5" width="99" height="39" rx="19.5" stroke="#606060"/>
<mask id="path-2-inside-1_125_35" fill="white">
<path d="M97 30.5C93.596 36.3797 87.3168 40 80.5227 40H20.6813C20.5652 40 20.4539 39.9539 20.3718 39.8718C20.1784 39.6784 20.2078 39.3569 20.4331 39.2019L58.5 13L72.6793 3.54715C75.1826 1.87823 78.0798 0.894684 81.0818 0.69455L81.2646 0.682362C87.5547 0.26302 93.5559 3.37754 96.8337 8.76251C97.9348 10.5714 98.6863 12.571 99.0491 14.6574L99.2525 15.827C100.065 20.4965 99.4254 25.3027 97.4211 29.5976L97 30.5Z"/>
<path d="M-nan -nanL97 30.5C93.596 36.3797 87.3168 40 80.5227 40H20.6813C20.5652 40 20.4539 39.9539 20.3718 39.8718L-nan -nanL20.3718 39.8718C20.1784 39.6784 20.2078 39.3569 20.4331 39.2019L58.5 13L72.6793 3.54715C75.1826 1.87823 78.0798 0.894684 81.0818 0.69455L81.2646 0.682362C87.5547 0.26302 93.5559 3.37754 96.8337 8.76251L-nan -nanL96.8337 8.76251C97.9348 10.5714 98.6863 12.571 99.0491 14.6574L99.2525 15.827C100.065 20.4965 99.4254 25.3027 97.4211 29.5976L97 30.5L-nan -nanZ"/>
<path d="M97.0005 30.5C93.5964 36.3797 87.3172 40 80.5232 40H20.6817C20.5657 40 20.4544 39.9539 20.3723 39.8718C20.1789 39.6784 20.2083 39.3569 20.4336 39.2019L58.5005 13L72.6797 3.54715C75.1831 1.87823 78.0802 0.894684 81.0822 0.69455L81.265 0.682362C87.5552 0.26302 93.5564 3.37754 96.8342 8.76251C97.9352 10.5714 98.6867 12.571 99.0496 14.6574L99.253 15.827C100.065 20.4965 99.4259 25.3027 97.4216 29.5976L97.0005 30.5Z"/>
</mask>
<path d="M97 30.5C93.596 36.3797 87.3168 40 80.5227 40H20.6813C20.5652 40 20.4539 39.9539 20.3718 39.8718C20.1784 39.6784 20.2078 39.3569 20.4331 39.2019L58.5 13L72.6793 3.54715C75.1826 1.87823 78.0798 0.894684 81.0818 0.69455L81.2646 0.682362C87.5547 0.26302 93.5559 3.37754 96.8337 8.76251C97.9348 10.5714 98.6863 12.571 99.0491 14.6574L99.2525 15.827C100.065 20.4965 99.4254 25.3027 97.4211 29.5976L97 30.5Z" fill="#606060"/>
<path d="M-nan -nanL97 30.5C93.596 36.3797 87.3168 40 80.5227 40H20.6813C20.5652 40 20.4539 39.9539 20.3718 39.8718L-nan -nanL20.3718 39.8718C20.1784 39.6784 20.2078 39.3569 20.4331 39.2019L58.5 13L72.6793 3.54715C75.1826 1.87823 78.0798 0.894684 81.0818 0.69455L81.2646 0.682362C87.5547 0.26302 93.5559 3.37754 96.8337 8.76251L-nan -nanL96.8337 8.76251C97.9348 10.5714 98.6863 12.571 99.0491 14.6574L99.2525 15.827C100.065 20.4965 99.4254 25.3027 97.4211 29.5976L97 30.5L-nan -nanZ" fill="#606060"/>
<path d="M97.0005 30.5C93.5964 36.3797 87.3172 40 80.5232 40H20.6817C20.5657 40 20.4544 39.9539 20.3723 39.8718C20.1789 39.6784 20.2083 39.3569 20.4336 39.2019L58.5005 13L72.6797 3.54715C75.1831 1.87823 78.0802 0.894684 81.0822 0.69455L81.265 0.682362C87.5552 0.26302 93.5564 3.37754 96.8342 8.76251C97.9352 10.5714 98.6867 12.571 99.0496 14.6574L99.253 15.827C100.065 20.4965 99.4259 25.3027 97.4216 29.5976L97.0005 30.5Z" fill="#606060"/>
<path d="M58.5 13L57.9453 12.1679L57.9391 12.1721L57.933 12.1763L58.5 13ZM58.5 13L57.9453 12.1679L57.9391 12.1721L57.933 12.1763L58.5 13ZM72.6793 3.54715L73.234 4.3792L72.6793 3.54715ZM81.0818 0.69455L81.1483 1.69233H81.1483L81.0818 0.69455ZM99.0491 14.6574L100.034 14.486L99.0491 14.6574ZM81.2646 0.682362L81.198 -0.315422H81.198L81.2646 0.682362ZM20.4331 39.2019L21.0001 40.0256V40.0256L20.4331 39.2019ZM97.4211 29.5976L98.3273 30.0205H98.3273L97.4211 29.5976ZM99.2525 15.827L98.2673 15.9983L99.2525 15.827ZM58.5005 13L57.9458 12.1679L57.9396 12.1721L57.9335 12.1763L58.5005 13ZM97.0005 30.5L97.8659 31.001L97.888 30.9629L97.9066 30.9229L97.0005 30.5ZM72.6797 3.54715L73.2344 4.3792L72.6797 3.54715ZM81.0822 0.69455L81.1487 1.69233H81.1487L81.0822 0.69455ZM96.8342 8.76251L97.6884 8.24256L96.8342 8.76251ZM99.0496 14.6574L100.035 14.486L99.0496 14.6574ZM81.265 0.682362L81.1985 -0.315422H81.1985L81.265 0.682362ZM20.4336 39.2019L19.8666 38.3781L20.4336 39.2019ZM97.4216 29.5976L98.3278 30.0205H98.3278L97.4216 29.5976ZM99.253 15.827L98.2678 15.9983L99.253 15.827ZM72.6793 3.54715L73.234 4.3792L72.6793 3.54715ZM81.0818 0.69455L81.1483 1.69233L81.0818 0.69455ZM99.0491 14.6574L100.034 14.486L99.0491 14.6574ZM81.2646 0.682362L81.3311 1.68015L81.2646 0.682362ZM20.4331 39.2019L19.8662 38.3781L20.4331 39.2019ZM97.4211 29.5976L98.3273 30.0205L97.4211 29.5976ZM80.5227 39H20.6813V41H80.5227V39ZM21.0001 40.0256L59.067 13.8237L57.933 12.1763L19.8662 38.3781L21.0001 40.0256ZM96.5149 29.1747L96.0938 30.0771L97.9062 30.9229L98.3273 30.0205L96.5149 29.1747ZM98.0639 14.8287L98.2673 15.9983L100.238 15.6557L100.034 14.486L98.0639 14.8287ZM59.0547 13.8321L73.234 4.3792L72.1246 2.7151L57.9453 12.1679L59.0547 13.8321ZM81.1483 1.69233L81.3311 1.68015L81.198 -0.315422L81.0152 -0.303234L81.1483 1.69233ZM80.5227 39H20.6813V41H80.5227V39ZM21.0001 40.0256L59.067 13.8237L57.933 12.1763L19.8662 38.3781L21.0001 40.0256ZM96.5149 29.1747L96.0938 30.0771L97.9062 30.9229L98.3273 30.0205L96.5149 29.1747ZM98.0639 14.8287L98.2673 15.9983L100.238 15.6557L100.034 14.486L98.0639 14.8287ZM59.0547 13.8321L73.234 4.3792L72.1246 2.7151L57.9453 12.1679L59.0547 13.8321ZM81.1483 1.69233L81.3311 1.68015L81.198 -0.315422L81.0152 -0.303234L81.1483 1.69233ZM73.234 4.3792C75.5919 2.80725 78.3207 1.88084 81.1483 1.69233L81.0152 -0.303234C77.8388 -0.0914726 74.7734 0.949223 72.1246 2.7151L73.234 4.3792ZM95.9795 9.28245C97.0155 10.9844 97.7225 12.8657 98.0639 14.8287L100.034 14.486C99.65 12.2763 98.8541 10.1584 97.6879 8.24256L95.9795 9.28245ZM97.6879 8.24256C94.2162 2.53913 87.8602 -0.759567 81.198 -0.315422L81.3311 1.68015C87.2493 1.2856 92.8955 4.21593 95.9795 9.28245L97.6879 8.24256ZM21.0789 39.1647C21.3275 39.4132 21.2896 39.8263 21.0001 40.0256L19.8662 38.3781C19.126 38.8876 19.0294 39.9436 19.6647 40.5789L21.0789 39.1647ZM20.6813 39C20.8304 39 20.9735 39.0593 21.0789 39.1647L19.6647 40.5789C19.9343 40.8485 20.3 41 20.6813 41V39ZM98.3273 30.0205C100.418 25.5402 101.085 20.5266 100.238 15.6557L98.2673 15.9983C99.0444 20.4663 98.4327 25.0651 96.5149 29.1747L98.3273 30.0205ZM80.5227 41C87.6736 41 94.2826 37.1896 97.8654 31.001L96.1346 29.999C92.9093 35.5699 86.9599 39 80.5227 39V41ZM80.5232 39H20.6817V41H80.5232V39ZM21.0006 40.0256L59.0674 13.8237L57.9335 12.1763L19.8666 38.3781L21.0006 40.0256ZM96.5154 29.1747L96.0943 30.0771L97.9066 30.9229L98.3278 30.0205L96.5154 29.1747ZM98.0644 14.8287L98.2678 15.9983L100.238 15.6557L100.035 14.486L98.0644 14.8287ZM59.0552 13.8321L73.2344 4.3792L72.125 2.7151L57.9458 12.1679L59.0552 13.8321ZM81.1487 1.69233L81.3315 1.68015L81.1985 -0.315422L81.0157 -0.303234L81.1487 1.69233ZM73.2344 4.3792C75.5924 2.80725 78.3211 1.88084 81.1487 1.69233L81.0157 -0.303234C77.8393 -0.0914726 74.7739 0.949223 72.125 2.7151L73.2344 4.3792ZM95.98 9.28245C97.0159 10.9844 97.723 12.8657 98.0644 14.8287L100.035 14.486C99.6505 12.2763 98.8545 10.1584 97.6884 8.24256L95.98 9.28245ZM97.6884 8.24256C94.2167 2.53913 87.8606 -0.759567 81.1985 -0.315422L81.3315 1.68015C87.2497 1.2856 92.896 4.21593 95.98 9.28245L97.6884 8.24256ZM21.0794 39.1647C21.3279 39.4132 21.2901 39.8263 21.0006 40.0256L19.8666 38.3781C19.1265 38.8876 19.0298 39.9436 19.6652 40.5789L21.0794 39.1647ZM20.6817 39C20.8309 39 20.9739 39.0593 21.0794 39.1647L19.6652 40.5789C19.9348 40.8485 20.3004 41 20.6817 41V39ZM98.3278 30.0205C100.419 25.5402 101.085 20.5266 100.238 15.6557L98.2678 15.9983C99.0448 20.4663 98.4332 25.0651 96.5154 29.1747L98.3278 30.0205ZM80.5232 41C87.674 41 94.2831 37.1896 97.8659 31.001L96.135 29.999C92.9098 35.5699 86.9604 39 80.5232 39V41ZM73.234 4.3792C75.5919 2.80725 78.3207 1.88084 81.1483 1.69233L81.0152 -0.303234C77.8388 -0.0914726 74.7734 0.949223 72.1246 2.7151L73.234 4.3792ZM95.9795 9.28245C97.0155 10.9844 97.7225 12.8657 98.0639 14.8287L100.034 14.486C99.65 12.2763 98.8541 10.1584 97.6879 8.24256L95.9795 9.28245ZM97.6879 8.24256C94.2162 2.53913 87.8602 -0.759563 81.198 -0.315422L81.3311 1.68015C87.2493 1.2856 92.8955 4.21593 95.9795 9.28245L97.6879 8.24256ZM21.0789 39.1647C21.3275 39.4132 21.2896 39.8263 21.0001 40.0256L19.8662 38.3781C19.126 38.8876 19.0294 39.9436 19.6647 40.5789L21.0789 39.1647ZM20.6813 39C20.8304 39 20.9735 39.0593 21.0789 39.1647L19.6647 40.5789C19.9343 40.8485 20.3 41 20.6813 41V39ZM98.3273 30.0205C100.418 25.5402 101.085 20.5266 100.238 15.6557L98.2673 15.9983C99.0444 20.4663 98.4327 25.0651 96.5149 29.1747L98.3273 30.0205ZM80.5227 41C87.6736 41 94.2826 37.1896 97.8654 31.001L96.1346 29.999C92.9093 35.5699 86.9599 39 80.5227 39V41Z" fill="#606060" mask="url(#path-2-inside-1_125_35)"/>
<circle cx="75" cy="20" r="5" fill="#EFE7DA"/>
</svg>
