<svg width="402" height="125" viewBox="0 0 402 125" fill="none" xmlns="http://www.w3.org/2000/svg">
<path d="M37 21H38.5V19.5V12C38.5 6.20101 43.201 1.5 49 1.5H59.5H71.5C77.299 1.5 82 6.20101 82 12V19.5V21H83.5H103.5V25.1738C103.5 27.6591 105.515 29.6738 108 29.6738H111.5H116C118.485 29.6738 120.5 27.6591 120.5 25.1738V21H381.309C391.595 21 399.906 29.3905 399.808 39.6762L399.189 104.676C399.092 114.824 390.838 123 380.69 123H20.5C10.2827 123 2 114.717 2 104.5V36C2 27.7157 8.71573 21 17 21H37Z" stroke="#606060" stroke-width="3"/>
</svg>
