<svg width="402" height="154" viewBox="0 0 402 154" fill="none" xmlns="http://www.w3.org/2000/svg">
<mask id="path-1-inside-1_161_13" fill="white">
<path d="M0 40.2814C0 29.3215 8.82093 20.4031 19.7802 20.2826L91 19.5L91.2002 11.6924C91.367 5.18695 96.6887 0 103.196 0H109.5H117.139C123.767 0 129.139 5.37258 129.139 12V19.5H306.5L307.232 41.4748C307.38 45.9022 311.097 49.3668 315.524 49.2028L334.5 48.5L356.233 49.2244C360.754 49.3751 364.5 45.7516 364.5 41.2289V19.5H382C393.046 19.5 402 28.4543 402 39.5V125.5C402 136.546 393.046 145.5 382 145.5H121V149C121 151.761 118.761 154 116 154H111H106.5C103.739 154 101.5 151.761 101.5 149V145.5H79.5V136C79.5 130.477 75.0228 126 69.5 126H60H49.5C43.9772 126 39.5 130.477 39.5 136V145.5H20C8.95431 145.5 0 136.546 0 125.5V40.2814Z"/>
</mask>
<path d="M39.5 145.5V148.5H42.5V145.5H39.5ZM79.5 145.5H76.5V148.5H79.5V145.5ZM101.5 145.5H104.5V142.5H101.5V145.5ZM121 145.5V142.5H118V145.5H121ZM364.5 19.5V16.5H361.5V19.5H364.5ZM334.5 48.5L334.6 45.5017L334.494 45.4981L334.389 45.5021L334.5 48.5ZM306.5 19.5L309.498 19.4001L309.402 16.5H306.5V19.5ZM91 19.5L91.033 22.4998L93.999 19.5769L91 19.5ZM129.139 19.5H126.139L129.139 22.5V19.5ZM356.233 49.2244L356.333 46.2261L356.233 49.2244ZM307.232 41.4748L304.234 41.5748L307.232 41.4748ZM315.524 49.2028L315.413 46.2049L315.524 49.2028ZM91.2002 11.6924L88.2012 11.6155L91.2002 11.6924ZM399 39.5V125.5H405V39.5H399ZM3 125.5V40.2814H-3V125.5H3ZM39.5 142.5H20V148.5H39.5V142.5ZM82.5 145.5V136H76.5V145.5H82.5ZM69.5 123H60V129H69.5V123ZM60 123H49.5V129H60V123ZM36.5 136V145.5H42.5V136H36.5ZM101.5 142.5H79.5V148.5H101.5V142.5ZM382 142.5H121V148.5H382V142.5ZM118 145.5V149H124V145.5H118ZM116 151H111V157H116V151ZM111 151H106.5V157H111V151ZM104.5 149V145.5H98.5V149H104.5ZM364.5 22.5H382V16.5H364.5V22.5ZM334.4 51.4983L356.134 52.2228L356.333 46.2261L334.6 45.5017L334.4 51.4983ZM367.5 41.2289V19.5H361.5V41.2289H367.5ZM303.502 19.5999L304.234 41.5748L310.231 41.3749L309.498 19.4001L303.502 19.5999ZM315.635 52.2008L334.611 51.4979L334.389 45.5021L315.413 46.2049L315.635 52.2008ZM19.8132 23.2825L91.033 22.4998L90.967 16.5002L19.7473 17.2828L19.8132 23.2825ZM129.139 22.5H306.5V16.5H129.139V22.5ZM109.5 3H117.139V-3H109.5V3ZM126.139 12V19.5H132.139V12H126.139ZM93.999 19.5769L94.1992 11.7693L88.2012 11.6155L88.001 19.4231L93.999 19.5769ZM103.196 3H109.5V-3H103.196V3ZM356.134 52.2228C362.349 52.43 367.5 47.4477 367.5 41.2289H361.5C361.5 44.0556 359.159 46.3203 356.333 46.2261L356.134 52.2228ZM49.5 123C42.3203 123 36.5 128.82 36.5 136H42.5C42.5 132.134 45.634 129 49.5 129V123ZM-3 125.5C-3 138.203 7.29745 148.5 20 148.5V142.5C10.6112 142.5 3 134.889 3 125.5H-3ZM304.234 41.5748C304.437 47.6624 309.548 52.4262 315.635 52.2008L315.413 46.2049C312.646 46.3073 310.323 44.142 310.231 41.3749L304.234 41.5748ZM82.5 136C82.5 128.82 76.6797 123 69.5 123V129C73.366 129 76.5 132.134 76.5 136H82.5ZM106.5 151C105.395 151 104.5 150.105 104.5 149H98.5C98.5 153.418 102.082 157 106.5 157V151ZM399 125.5C399 134.889 391.389 142.5 382 142.5V148.5C394.703 148.5 405 138.203 405 125.5H399ZM118 149C118 150.105 117.105 151 116 151V157C120.418 157 124 153.418 124 149H118ZM405 39.5C405 26.7975 394.703 16.5 382 16.5V22.5C391.389 22.5 399 30.1112 399 39.5H405ZM117.139 3C122.11 3 126.139 7.02944 126.139 12H132.139C132.139 3.71573 125.423 -3 117.139 -3V3ZM94.1992 11.7693C94.3243 6.89021 98.3156 3 103.196 3V-3C95.0618 -3 88.4097 3.48369 88.2012 11.6155L94.1992 11.7693ZM3 40.2814C3 30.9655 10.4978 23.3848 19.8132 23.2825L19.7473 17.2828C7.14407 17.4213 -3 27.6775 -3 40.2814H3Z" fill="#606060" mask="url(#path-1-inside-1_161_13)"/>
</svg>
