<svg width="57" height="20" viewBox="0 0 57 20" fill="none" xmlns="http://www.w3.org/2000/svg">
<rect x="0.5" y="0.5" width="56" height="19" rx="2.5" stroke="#606060"/>
<rect x="2.5" y="2.5" width="52" height="15" rx="2.5" stroke="#606060"/>
<line x1="53.6464" y1="3.76778" x2="55.7678" y2="1.64646" stroke="#606060"/>
<line x1="53.3536" y1="16.6464" x2="55.4749" y2="18.7678" stroke="#606060"/>
<line x1="1.35355" y1="1.64645" x2="3.47487" y2="3.76777" stroke="#606060"/>
<line x1="1.64645" y1="18.7678" x2="3.76777" y2="16.6465" stroke="#606060"/>
<path d="M18.6021 7.54545C18.5595 7.18561 18.3867 6.90625 18.0836 6.70739C17.7806 6.50852 17.4089 6.40909 16.9686 6.40909C16.6466 6.40909 16.3649 6.46117 16.1234 6.56534C15.8843 6.66951 15.6973 6.81274 15.5623 6.99503C15.4297 7.17732 15.3635 7.38447 15.3635 7.61648C15.3635 7.81061 15.4096 7.97751 15.502 8.11719C15.5967 8.2545 15.7174 8.36932 15.8642 8.46165C16.0109 8.55161 16.1648 8.62618 16.3258 8.68537C16.4868 8.74219 16.6348 8.78835 16.7697 8.82386L17.5083 9.02273C17.6977 9.07244 17.9084 9.1411 18.1404 9.22869C18.3748 9.31629 18.5985 9.43584 18.8116 9.58736C19.027 9.73651 19.2046 9.92827 19.3443 10.1626C19.484 10.397 19.5538 10.6847 19.5538 11.0256C19.5538 11.4186 19.4508 11.7737 19.2449 12.0909C19.0413 12.4081 18.743 12.6603 18.35 12.8473C17.9593 13.0343 17.4847 13.1278 16.926 13.1278C16.4051 13.1278 15.9541 13.0438 15.573 12.8757C15.1942 12.7076 14.8959 12.4732 14.6781 12.1726C14.4627 11.8719 14.3407 11.5227 14.3123 11.125H15.2214C15.2451 11.3996 15.3374 11.6269 15.4984 11.8068C15.6618 11.9844 15.8677 12.117 16.1163 12.2045C16.3672 12.2898 16.6371 12.3324 16.926 12.3324C17.2621 12.3324 17.564 12.2779 17.8315 12.169C18.099 12.0578 18.3109 11.9039 18.4672 11.7074C18.6234 11.5085 18.7015 11.2765 18.7015 11.0114C18.7015 10.7699 18.6341 10.5734 18.4991 10.4219C18.3642 10.2704 18.1866 10.1473 17.9664 10.0526C17.7463 9.95786 17.5083 9.875 17.2527 9.80398L16.3578 9.5483C15.7896 9.38494 15.3398 9.15175 15.0083 8.84872C14.6769 8.54569 14.5112 8.14915 14.5112 7.65909C14.5112 7.25189 14.6213 6.89678 14.8414 6.59375C15.064 6.28835 15.3623 6.05161 15.7363 5.88352C16.1127 5.71307 16.533 5.62784 16.997 5.62784C17.4657 5.62784 17.8824 5.71188 18.247 5.87997C18.6116 6.04569 18.9004 6.27296 19.1135 6.56179C19.3289 6.85062 19.4425 7.1785 19.4544 7.54545H18.6021ZM20.8881 15.0455V7.54545H21.6978V8.41193H21.7972C21.8588 8.31723 21.944 8.1965 22.0529 8.04972C22.1642 7.90057 22.3228 7.76799 22.5288 7.65199C22.7371 7.53362 23.0188 7.47443 23.3739 7.47443C23.8332 7.47443 24.238 7.58925 24.5884 7.81889C24.9388 8.04853 25.2122 8.37405 25.4087 8.79545C25.6052 9.21686 25.7035 9.71402 25.7035 10.2869C25.7035 10.8646 25.6052 11.3653 25.4087 11.7891C25.2122 12.2105 24.94 12.5372 24.592 12.7692C24.244 12.9988 23.8427 13.1136 23.3881 13.1136C23.0378 13.1136 22.7572 13.0556 22.5465 12.9396C22.3358 12.8213 22.1737 12.6875 22.06 12.5384C21.9464 12.3868 21.8588 12.2614 21.7972 12.1619H21.7262V15.0455H20.8881ZM21.712 10.2727C21.712 10.6847 21.7724 11.0481 21.8931 11.3629C22.0138 11.6754 22.1902 11.9205 22.4222 12.098C22.6542 12.2732 22.9383 12.3608 23.2745 12.3608C23.6249 12.3608 23.9173 12.2685 24.1516 12.0838C24.3884 11.8968 24.5659 11.6458 24.6843 11.331C24.805 11.0137 24.8654 10.661 24.8654 10.2727C24.8654 9.8892 24.8062 9.54356 24.6879 9.2358C24.5719 8.92566 24.3955 8.68063 24.1587 8.50071C23.9244 8.31842 23.6296 8.22727 23.2745 8.22727C22.9336 8.22727 22.6471 8.31368 22.4151 8.48651C22.1831 8.65696 22.0079 8.89607 21.8896 9.20384C21.7712 9.50923 21.712 9.86553 21.712 10.2727ZM28.587 13.1278C28.2414 13.1278 27.9277 13.0627 27.646 12.9325C27.3642 12.8 27.1405 12.6094 26.9748 12.3608C26.8091 12.1098 26.7262 11.8068 26.7262 11.4517C26.7262 11.1392 26.7878 10.8859 26.9109 10.6918C27.034 10.4953 27.1985 10.3414 27.4045 10.2301C27.6104 10.1188 27.8377 10.036 28.0863 9.98153C28.3372 9.92472 28.5894 9.87973 28.8427 9.84659C29.1741 9.80398 29.4428 9.77202 29.6488 9.75071C29.8571 9.72704 30.0086 9.68797 30.1033 9.63352C30.2004 9.57907 30.2489 9.48437 30.2489 9.34943V9.32102C30.2489 8.97064 30.1531 8.69839 29.9613 8.50426C29.7719 8.31013 29.4843 8.21307 29.0984 8.21307C28.6983 8.21307 28.3846 8.30066 28.1573 8.47585C27.93 8.65104 27.7702 8.83807 27.6779 9.03693L26.8825 8.75284C27.0245 8.4214 27.2139 8.16335 27.4506 7.97869C27.6897 7.79167 27.9502 7.66146 28.2319 7.58807C28.516 7.51231 28.7953 7.47443 29.07 7.47443C29.2451 7.47443 29.4464 7.49574 29.6737 7.53835C29.9033 7.5786 30.1246 7.66264 30.3377 7.79048C30.5531 7.91832 30.7319 8.11127 30.8739 8.36932C31.016 8.62737 31.087 8.97301 31.087 9.40625V13H30.2489V12.2614H30.2063C30.1495 12.3797 30.0548 12.5064 29.9222 12.6413C29.7897 12.7763 29.6133 12.8911 29.3931 12.9858C29.1729 13.0805 28.9042 13.1278 28.587 13.1278ZM28.7148 12.375C29.0463 12.375 29.3256 12.3099 29.5529 12.1797C29.7826 12.0495 29.9554 11.8814 30.0714 11.6754C30.1897 11.4695 30.2489 11.2528 30.2489 11.0256V10.2585C30.2134 10.3011 30.1353 10.3402 30.0146 10.3757C29.8962 10.4089 29.7589 10.4384 29.6026 10.4645C29.4487 10.4882 29.2984 10.5095 29.1516 10.5284C29.0072 10.545 28.89 10.5592 28.8001 10.571C28.5823 10.5994 28.3787 10.6456 28.1893 10.7095C28.0022 10.7711 27.8507 10.8646 27.7347 10.9901C27.6211 11.1132 27.5643 11.2812 27.5643 11.4943C27.5643 11.7855 27.672 12.0057 27.8874 12.1548C28.1052 12.3016 28.381 12.375 28.7148 12.375ZM34.8326 13.1136C34.3212 13.1136 33.8809 12.9929 33.5115 12.7514C33.1422 12.5099 32.8581 12.1773 32.6593 11.7536C32.4604 11.3298 32.361 10.8456 32.361 10.3011C32.361 9.74716 32.4628 9.25829 32.6664 8.83452C32.8723 8.40838 33.1588 8.07576 33.5257 7.83665C33.8951 7.59517 34.3259 7.47443 34.8184 7.47443C35.2019 7.47443 35.5475 7.54545 35.8553 7.6875C36.1631 7.82955 36.4152 8.02841 36.6117 8.28409C36.8082 8.53977 36.9301 8.83807 36.9775 9.17898H36.1394C36.0755 8.9304 35.9334 8.71023 35.7132 8.51847C35.4954 8.32434 35.2019 8.22727 34.8326 8.22727C34.5059 8.22727 34.2194 8.3125 33.9732 8.48295C33.7293 8.65104 33.5388 8.88897 33.4015 9.19673C33.2665 9.50213 33.199 9.8608 33.199 10.2727C33.199 10.6941 33.2653 11.0611 33.3979 11.3736C33.5328 11.6861 33.7222 11.9287 33.9661 12.1016C34.2123 12.2744 34.5011 12.3608 34.8326 12.3608C35.0504 12.3608 35.248 12.3229 35.4256 12.2472C35.6032 12.1714 35.7535 12.0625 35.8766 11.9205C35.9997 11.7784 36.0873 11.608 36.1394 11.4091H36.9775C36.9301 11.7311 36.8129 12.0211 36.6259 12.2791C36.4412 12.5348 36.1962 12.7384 35.8908 12.8899C35.5878 13.0391 35.235 13.1136 34.8326 13.1136ZM40.4895 13.1136C39.964 13.1136 39.5106 12.9976 39.1294 12.7656C38.7507 12.5312 38.4583 12.2045 38.2523 11.7855C38.0487 11.3641 37.9469 10.8741 37.9469 10.3153C37.9469 9.75663 38.0487 9.2642 38.2523 8.83807C38.4583 8.40956 38.7447 8.07576 39.1117 7.83665C39.481 7.59517 39.9119 7.47443 40.4043 7.47443C40.6884 7.47443 40.9689 7.52178 41.2459 7.61648C41.5229 7.71117 41.775 7.86506 42.0023 8.07812C42.2296 8.28883 42.4107 8.56818 42.5456 8.91619C42.6806 9.2642 42.748 9.69271 42.748 10.2017V10.5568H38.5435V9.83239H41.8958C41.8958 9.52462 41.8342 9.25 41.7111 9.00852C41.5904 8.76705 41.4176 8.57647 41.1926 8.43679C40.9701 8.29711 40.7073 8.22727 40.4043 8.22727C40.0705 8.22727 39.7817 8.31013 39.5378 8.47585C39.2963 8.6392 39.1105 8.85227 38.9803 9.11506C38.8501 9.37784 38.785 9.65956 38.785 9.96023V10.4432C38.785 10.8551 38.856 11.2043 38.998 11.4908C39.1425 11.7749 39.3425 11.9915 39.5982 12.1406C39.8539 12.2874 40.151 12.3608 40.4895 12.3608C40.7097 12.3608 40.9086 12.33 41.0861 12.2685C41.266 12.2045 41.4211 12.1098 41.5513 11.9844C41.6815 11.8565 41.7821 11.6979 41.8532 11.5085L42.6628 11.7358C42.5776 12.0104 42.4344 12.2519 42.2331 12.4602C42.0319 12.6662 41.7833 12.8272 41.4874 12.9432C41.1915 13.0568 40.8588 13.1136 40.4895 13.1136Z" fill="#606060"/>
</svg>
