<svg class="svg-top-btn" width="400" height="200" viewBox="0 0 400 200" fill="none" xmlns="http://www.w3.org/2000/svg">
<path d="M301.5 169.44H125.5V160.427C125.5 154.076 120.351 148.927 114 148.927H108H102C95.6487 148.927 90.5 154.076 90.5 160.427V169.44H20C9.78273 169.44 1.5 161.157 1.5 150.94V20C1.5 9.78276 9.78274 1.5 20 1.5H380C390.217 1.5 398.5 9.78273 398.5 20V150.94C398.5 161.157 390.217 169.44 380 169.44H365H363.5V170.94V190C363.5 194.694 359.694 198.5 355 198.5H335.5H311.5C306.806 198.5 303 194.694 303 190V170.94V169.44H301.5Z" stroke="#606060" stroke-width="3"/>
</svg>
