<svg width="106" height="58" viewBox="0 0 106 58" fill="none" xmlns="http://www.w3.org/2000/svg">
<g filter="url(#filter0_bd_171_27)">
<path d="M32.799 44V49.5H9C6.51472 49.5 4.5 47.4853 4.5 45V24.5V5C4.5 2.51472 6.51472 0.5 9 0.5H97C99.4853 0.5 101.5 2.51472 101.5 5V45C101.5 47.4853 99.4853 49.5 97 49.5H57.0362V47.5V47H56.5362H51.9846V45V44.5H51.4846H48.4537H47.9537V45V49.5H40.8712V44V43.5H40.3712H37.3403H33.299H32.799V44Z" fill="#DB6827" stroke="#606060"/>
<path d="M18 10.5H88C90.4853 10.5 92.5 12.5147 92.5 15V35C92.5 37.4853 90.4853 39.5 88 39.5H18C15.5147 39.5 13.5 37.4853 13.5 35V15C13.5 12.5147 15.5147 10.5 18 10.5Z" fill="#DB6827" stroke="#606060"/>
<line x1="90.6464" y1="11.6464" x2="100.646" y2="1.64645" stroke="#606060"/>
<line x1="5.64645" y1="48.6464" x2="15.6464" y2="38.6464" stroke="#606060"/>
<line x1="5.35355" y1="1.64645" x2="15.3536" y2="11.6464" stroke="#606060"/>
<line x1="90.3536" y1="38.6464" x2="100.354" y2="48.6464" stroke="#606060"/>
</g>
<defs>
<filter id="filter0_bd_171_27" x="-36" y="-40" width="178" height="130" filterUnits="userSpaceOnUse" color-interpolation-filters="sRGB">
<feFlood flood-opacity="0" result="BackgroundImageFix"/>
<feGaussianBlur in="BackgroundImageFix" stdDeviation="20"/>
<feComposite in2="SourceAlpha" operator="in" result="effect1_backgroundBlur_171_27"/>
<feColorMatrix in="SourceAlpha" type="matrix" values="0 0 0 0 0 0 0 0 0 0 0 0 0 0 0 0 0 0 127 0" result="hardAlpha"/>
<feOffset dy="4"/>
<feGaussianBlur stdDeviation="2"/>
<feComposite in2="hardAlpha" operator="out"/>
<feColorMatrix type="matrix" values="0 0 0 0 0 0 0 0 0 0 0 0 0 0 0 0 0 0 0.25 0"/>
<feBlend mode="normal" in2="effect1_backgroundBlur_171_27" result="effect2_dropShadow_171_27"/>
<feBlend mode="normal" in="SourceGraphic" in2="effect2_dropShadow_171_27" result="shape"/>
</filter>
</defs>
</svg>
