<svg width="101" height="40" viewBox="0 0 101 40" fill="none" xmlns="http://www.w3.org/2000/svg">
<rect x="1" y="0.5" width="99" height="39" rx="19.5" stroke="black"/>
<mask id="path-2-inside-1_125_36" fill="white">
<path d="M3.5 9.5C6.90404 3.62029 13.1832 0 19.9773 0H79.8187C79.9348 0 80.0461 0.0461084 80.1282 0.128182V0.128182C80.3216 0.321594 80.2922 0.643052 80.0669 0.798137L42 27L27.8207 36.4529C25.3174 38.1218 22.4202 39.1053 19.4182 39.3055L19.2354 39.3176C12.9453 39.737 6.94411 36.6225 3.6663 31.2375V31.2375C2.56523 29.4286 1.81374 27.429 1.45089 25.3426L1.24748 24.173C0.435394 19.5035 1.07459 14.6973 3.07889 10.4024L3.5 9.5V9.5Z"/>
<path d="M-nan -nanL3.5 9.5C6.90404 3.62029 13.1832 0 19.9773 0H79.8187C79.9348 0 80.0461 0.0461084 80.1282 0.128182L-nan -nanL-nan -nanL80.1282 0.128182C80.3216 0.321594 80.2922 0.643052 80.0669 0.798137L42 27L27.8207 36.4529C25.3174 38.1218 22.4202 39.1053 19.4182 39.3055L19.2354 39.3176C12.9453 39.737 6.94411 36.6225 3.6663 31.2375L-nan -nanL-nan -nanL3.6663 31.2375C2.56523 29.4286 1.81374 27.429 1.45089 25.3426L1.24748 24.173C0.435394 19.5035 1.07459 14.6973 3.07889 10.4024L3.5 9.5L-nan -nanL-nan -nanZ"/>
<path d="M3.49954 9.5C6.90358 3.62029 13.1828 0 19.9768 0H79.8183C79.9343 0 80.0457 0.0461084 80.1277 0.128182C80.3211 0.321594 80.2917 0.643052 80.0664 0.798137L41.9995 27L27.8203 36.4529C25.3169 38.1218 22.4198 39.1053 19.4178 39.3055L19.235 39.3176C12.9448 39.737 6.94365 36.6225 3.66584 31.2375C2.56477 29.4286 1.81327 27.429 1.45043 25.3426L1.24702 24.173C0.434934 19.5035 1.07413 14.6973 3.07843 10.4024L3.49954 9.5Z"/>
</mask>
<path d="M42 27L42.5547 27.8321L42.5609 27.8279L42.567 27.8237L42 27ZM42 27L42.5547 27.8321L42.5609 27.8279L42.567 27.8237L42 27ZM27.8207 36.4529L27.266 35.6208L27.266 35.6208L27.8207 36.4529ZM19.4182 39.3055L19.3517 38.3077L19.3517 38.3077L19.4182 39.3055ZM1.45089 25.3426L0.465682 25.514L0.465682 25.514L1.45089 25.3426ZM19.2354 39.3176L19.302 40.3154L19.302 40.3154L19.2354 39.3176ZM80.0669 0.798137L79.4999 -0.0255928L79.4999 -0.0255928L80.0669 0.798137ZM3.07889 10.4024L2.17271 9.9795L2.17271 9.9795L3.07889 10.4024ZM1.24748 24.173L2.23269 24.0017L2.23269 24.0017L1.24748 24.173ZM41.9995 27L42.5542 27.8321L42.5604 27.8279L42.5665 27.8237L41.9995 27ZM3.49954 9.5L2.63411 8.99896L2.61201 9.03714L2.59336 9.07711L3.49954 9.5ZM27.8203 36.4529L27.2656 35.6208L27.2656 35.6208L27.8203 36.4529ZM19.4178 39.3055L19.3513 38.3077L19.3513 38.3077L19.4178 39.3055ZM3.66584 31.2375L2.81164 31.7574L3.66584 31.2375ZM1.45043 25.3426L0.465222 25.514L0.465222 25.514L1.45043 25.3426ZM19.235 39.3176L19.3015 40.3154L19.3015 40.3154L19.235 39.3176ZM80.0664 0.798137L80.6334 1.62187L80.0664 0.798137ZM3.07843 10.4024L2.17224 9.9795L2.17224 9.9795L3.07843 10.4024ZM1.24702 24.173L2.23223 24.0017L2.23223 24.0017L1.24702 24.173ZM27.8207 36.4529L27.266 35.6208L27.8207 36.4529ZM19.4182 39.3055L19.3517 38.3077L19.4182 39.3055ZM1.45089 25.3426L0.465682 25.514L1.45089 25.3426ZM19.2354 39.3176L19.1689 38.3199L19.2354 39.3176ZM80.0669 0.798137L80.6338 1.62187L80.0669 0.798137ZM3.07889 10.4024L2.17271 9.9795L3.07889 10.4024ZM19.9773 1H79.8187V-1H19.9773V1ZM79.4999 -0.0255928L41.433 26.1763L42.567 27.8237L80.6338 1.62187L79.4999 -0.0255928ZM3.98507 10.8253L4.40618 9.92289L2.59382 9.07711L2.17271 9.9795L3.98507 10.8253ZM2.43611 25.1713L2.23269 24.0017L0.262267 24.3443L0.465682 25.514L2.43611 25.1713ZM41.4453 26.1679L27.266 35.6208L28.3754 37.2849L42.5547 27.8321L41.4453 26.1679ZM19.3517 38.3077L19.1689 38.3199L19.302 40.3154L19.4848 40.3032L19.3517 38.3077ZM19.9773 1H79.8187V-1H19.9773V1ZM79.4999 -0.0255928L41.433 26.1763L42.567 27.8237L80.6338 1.62187L79.4999 -0.0255928ZM3.98507 10.8253L4.40618 9.92289L2.59382 9.07711L2.17271 9.9795L3.98507 10.8253ZM2.43611 25.1713L2.23269 24.0017L0.262267 24.3443L0.465682 25.514L2.43611 25.1713ZM41.4453 26.1679L27.266 35.6208L28.3754 37.2849L42.5547 27.8321L41.4453 26.1679ZM19.3517 38.3077L19.1689 38.3199L19.302 40.3154L19.4848 40.3032L19.3517 38.3077ZM27.266 35.6208C24.9081 37.1928 22.1793 38.1192 19.3517 38.3077L19.4848 40.3032C22.6612 40.0915 25.7266 39.0508 28.3754 37.2849L27.266 35.6208ZM4.5205 30.7175C3.48455 29.0156 2.77749 27.1343 2.43611 25.1713L0.465682 25.514C0.849981 27.7237 1.64592 29.8416 2.8121 31.7574L4.5205 30.7175ZM2.8121 31.7574C6.28375 37.4609 12.6398 40.7596 19.302 40.3154L19.1689 38.3199C13.2507 38.7144 7.60447 35.7841 4.5205 30.7175L2.8121 31.7574ZM79.4211 0.835289C79.1725 0.586753 79.2104 0.173686 79.4999 -0.0255928L80.6338 1.62187C81.374 1.11242 81.4706 0.0564357 80.8353 -0.578925L79.4211 0.835289ZM79.8187 1C79.6696 1 79.5265 0.940748 79.4211 0.835289L80.8353 -0.578925C80.5657 -0.848531 80.2 -1 79.8187 -1V1ZM2.17271 9.9795C0.0819185 14.4598 -0.584861 19.4734 0.262267 24.3443L2.23269 24.0017C1.45565 19.5337 2.06726 14.9349 3.98507 10.8253L2.17271 9.9795ZM19.9773 -1C12.8264 -1 6.21741 2.81044 2.63457 8.99896L4.36543 10.001C7.59068 4.43014 13.5401 1 19.9773 1V-1ZM19.9768 1H79.8183V-1H19.9768V1ZM79.4994 -0.0255928L41.4326 26.1763L42.5665 27.8237L80.6334 1.62187L79.4994 -0.0255928ZM3.98461 10.8253L4.40572 9.92289L2.59336 9.07711L2.17224 9.9795L3.98461 10.8253ZM2.43565 25.1713L2.23223 24.0017L0.261806 24.3443L0.465222 25.514L2.43565 25.1713ZM41.4448 26.1679L27.2656 35.6208L28.375 37.2849L42.5542 27.8321L41.4448 26.1679ZM19.3513 38.3077L19.1685 38.3199L19.3015 40.3154L19.4843 40.3032L19.3513 38.3077ZM27.2656 35.6208C24.9076 37.1928 22.1789 38.1192 19.3513 38.3077L19.4843 40.3032C22.6607 40.0915 25.7261 39.0508 28.375 37.2849L27.2656 35.6208ZM4.52004 30.7175C3.48409 29.0156 2.77703 27.1343 2.43565 25.1713L0.465222 25.514C0.849521 27.7237 1.64546 29.8416 2.81164 31.7574L4.52004 30.7175ZM2.81164 31.7574C6.28329 37.4609 12.6394 40.7596 19.3015 40.3154L19.1685 38.3199C13.2503 38.7144 7.60401 35.7841 4.52004 30.7175L2.81164 31.7574ZM79.4206 0.835289C79.1721 0.586753 79.2099 0.173686 79.4994 -0.0255928L80.6334 1.62187C81.3735 1.11242 81.4702 0.0564357 80.8348 -0.578925L79.4206 0.835289ZM79.8183 1C79.6691 1 79.5261 0.940748 79.4206 0.835289L80.8348 -0.578925C80.5652 -0.848531 80.1996 -1 79.8183 -1V1ZM2.17224 9.9795C0.0814581 14.4598 -0.585321 19.4734 0.261806 24.3443L2.23223 24.0017C1.45519 19.5337 2.0668 14.9349 3.98461 10.8253L2.17224 9.9795ZM19.9768 -1C12.826 -1 6.21694 2.81044 2.63411 8.99896L4.36497 10.001C7.59022 4.43014 13.5396 1 19.9768 1V-1ZM27.266 35.6208C24.9081 37.1928 22.1793 38.1192 19.3517 38.3077L19.4848 40.3032C22.6612 40.0915 25.7266 39.0508 28.3754 37.2849L27.266 35.6208ZM4.5205 30.7175C3.48455 29.0156 2.77749 27.1343 2.43611 25.1713L0.465682 25.514C0.849981 27.7237 1.64592 29.8416 2.8121 31.7574L4.5205 30.7175ZM2.8121 31.7574C6.28375 37.4609 12.6398 40.7596 19.302 40.3154L19.1689 38.3199C13.2507 38.7144 7.60447 35.7841 4.5205 30.7175L2.8121 31.7574ZM79.4211 0.835289C79.1725 0.586756 79.2104 0.173689 79.4999 -0.0255928L80.6338 1.62187C81.374 1.11242 81.4706 0.0564324 80.8353 -0.578925L79.4211 0.835289ZM79.8187 1C79.6696 1 79.5265 0.940749 79.4211 0.835289L80.8353 -0.578925C80.5657 -0.848532 80.2 -1 79.8187 -1V1ZM2.17271 9.9795C0.0819186 14.4598 -0.584861 19.4734 0.262267 24.3443L2.23269 24.0017C1.45565 19.5337 2.06726 14.9349 3.98507 10.8253L2.17271 9.9795ZM19.9773 -1C12.8264 -1 6.21741 2.81044 2.63457 8.99896L4.36543 10.001C7.59068 4.43014 13.5401 1 19.9773 1V-1Z" fill="black" mask="url(#path-2-inside-1_125_36)"/>
<circle cx="25.5" cy="20" r="5" fill="black"/>
</svg>
